<svg width="24" height="24" viewBox="0 0 24 24" fill="none" xmlns="http://www.w3.org/2000/svg">
<path d="M18.3281 22.5018C17.4131 22.5018 16.1278 22.1708 14.2031 21.0955C11.8626 19.783 10.0523 18.5713 7.72451 16.2496C5.48013 14.0066 4.38794 12.5544 2.85935 9.77286C1.13247 6.63223 1.42685 4.98598 1.75591 4.28239C2.14779 3.44145 2.72622 2.93848 3.47388 2.43926C3.89855 2.16103 4.34795 1.92252 4.81638 1.72676C4.86326 1.70661 4.90685 1.68739 4.94576 1.67004C5.17779 1.56551 5.52935 1.40754 5.97466 1.57629C6.27185 1.68786 6.53716 1.91614 6.95248 2.32629C7.8042 3.16629 8.9681 5.03708 9.39748 5.95583C9.68576 6.57504 9.87654 6.98379 9.87701 7.44223C9.87701 7.97895 9.60701 8.39286 9.27935 8.83958C9.21795 8.92348 9.15701 9.00364 9.09794 9.08145C8.74123 9.5502 8.66294 9.68567 8.71451 9.92755C8.81904 10.4136 9.59857 11.8607 10.8797 13.139C12.1608 14.4172 13.5661 15.1475 14.054 15.2516C14.3062 15.3055 14.4445 15.224 14.9283 14.8546C14.9976 14.8016 15.0689 14.7468 15.1434 14.6919C15.6431 14.3202 16.0378 14.0572 16.5619 14.0572H16.5647C17.0208 14.0572 17.4112 14.255 18.0581 14.5813C18.9019 15.0069 20.8289 16.1558 21.674 17.0085C22.0851 17.4229 22.3144 17.6872 22.4264 17.984C22.5951 18.4307 22.4362 18.7808 22.3326 19.0152C22.3153 19.0541 22.2961 19.0968 22.2759 19.1441C22.0786 19.6117 21.8387 20.0602 21.5592 20.4838C21.0609 21.2291 20.5561 21.8061 19.7133 22.1985C19.2805 22.4032 18.8068 22.5069 18.3281 22.5018Z" fill="#FFCA1D"/>
</svg>
