<svg width="16" height="17" viewBox="0 0 16 17" fill="none" xmlns="http://www.w3.org/2000/svg">
<g id="cloud-upload" clip-path="url(#clip0_328_1903)">
<path id="Vector" d="M14.8051 7.06219C14.3675 6.73774 13.8299 6.49957 13.2623 6.3711C13.1691 6.35013 13.0837 6.30309 13.0163 6.23545C12.9488 6.16782 12.902 6.08239 12.8812 5.98914C12.6374 4.90297 12.1126 3.97151 11.3412 3.26573C10.4445 2.44399 9.25858 1.99202 8.00174 1.99202C6.89681 1.99202 5.87628 2.33835 5.05204 2.9938C4.49342 3.43873 4.04378 4.00533 3.73738 4.65041C3.70416 4.72099 3.65489 4.78283 3.5935 4.83097C3.53212 4.87911 3.46033 4.91222 3.38386 4.92766C2.54774 5.09645 1.79289 5.45496 1.21651 5.96289C0.420717 6.66616 0 7.60106 0 8.66848C0 9.74746 0.452911 10.7314 1.27497 11.4428C2.06014 12.1208 3.11724 12.4943 4.25093 12.4943H7.50163V7.70045L6.35482 8.84726C6.30694 8.89514 6.24984 8.93279 6.18698 8.95794C6.12412 8.98309 6.0568 8.99522 5.98912 8.99358C5.92143 8.99194 5.85478 8.97658 5.79321 8.94842C5.73163 8.92026 5.67642 8.87989 5.63091 8.82976C5.44962 8.63065 5.46713 8.32027 5.65748 8.12992L7.64823 6.13949C7.74201 6.04577 7.86916 5.99312 8.00174 5.99312C8.13432 5.99312 8.26148 6.04577 8.35526 6.13949L10.346 8.1293C10.5423 8.3259 10.5535 8.64816 10.3582 8.84539C10.3118 8.8922 10.2567 8.92939 10.1959 8.95483C10.1352 8.98027 10.07 8.99345 10.0041 8.99363C9.93826 8.9938 9.873 8.98096 9.81211 8.95584C9.75121 8.93073 9.69588 8.89383 9.64929 8.84726L8.50185 7.70045V12.4943H12.3777C13.3573 12.4943 14.2503 12.2192 14.8923 11.7201C15.6193 11.1543 16.0035 10.3448 16.0035 9.38113C16.0035 8.4453 15.589 7.64294 14.8051 7.06219Z" fill="#00173A"/>
<path id="Vector_2" d="M7.5011 14.5094C7.5011 14.6421 7.55383 14.7694 7.64769 14.8633C7.74154 14.9571 7.86884 15.0098 8.00158 15.0098C8.13431 15.0098 8.26161 14.9571 8.35547 14.8633C8.44932 14.7694 8.50205 14.6421 8.50205 14.5094V12.4943H7.5011V14.5094Z" fill="#00173A"/>
</g>
<defs>
<clipPath id="clip0_328_1903">
<rect width="16.0035" height="16.0035" fill="white" transform="translate(0 0.49826)"/>
</clipPath>
</defs>
</svg>
