<svg width="24" height="25" viewBox="0 0 24 25" fill="none" xmlns="http://www.w3.org/2000/svg">
<path d="M12.0003 11.002C12.8294 11.002 13.5014 10.3299 13.5014 9.50086C13.5014 8.67182 12.8294 7.99976 12.0003 7.99976C11.1713 7.99976 10.4992 8.67182 10.4992 9.50086C10.4992 10.3299 11.1713 11.002 12.0003 11.002Z" fill="#FFCA1D"/>
<path d="M11.9995 2C7.86417 2 4.49948 5.21797 4.49948 9.17187C4.49948 11.0548 5.35776 13.5589 7.05042 16.6147C8.40979 19.0681 9.98245 21.2867 10.8004 22.3906C10.9386 22.5792 11.1194 22.7326 11.3279 22.8384C11.5365 22.9441 11.767 22.9992 12.0009 22.9992C12.2347 22.9992 12.4653 22.9441 12.6739 22.8384C12.8824 22.7326 13.0631 22.5792 13.2014 22.3906C14.0179 21.2867 15.592 19.0681 16.9514 16.6147C18.6412 13.5598 19.4995 11.0558 19.4995 9.17187C19.4995 5.21797 16.1348 2 11.9995 2ZM11.9995 12.5C11.4061 12.5 10.8261 12.3241 10.3328 11.9944C9.83942 11.6648 9.45491 11.1962 9.22784 10.6481C9.00078 10.0999 8.94137 9.49667 9.05713 8.91473C9.17288 8.33279 9.4586 7.79824 9.87816 7.37868C10.2977 6.95912 10.8323 6.6734 11.4142 6.55764C11.9962 6.44189 12.5994 6.5013 13.1475 6.72836C13.6957 6.95542 14.1642 7.33994 14.4939 7.83329C14.8235 8.32664 14.9995 8.90666 14.9995 9.5C14.9986 10.2954 14.6823 11.0579 14.1198 11.6204C13.5574 12.1828 12.7949 12.4991 11.9995 12.5Z" fill="#FFCA1D"/>
</svg>
