<svg width="210" height="27" viewBox="0 0 210 27" fill="none" xmlns="http://www.w3.org/2000/svg">
<path d="M14.8946 25.3729H7.85418L1.95882 2.72418H8.21377L11.4406 18.7345L15.3866 2.72418H21.7741L25.6255 18.7066L28.8807 2.72418H35.0978L29.2024 25.3636H22.1904L18.5378 10.7108L14.8851 25.3636L14.8946 25.3729Z" fill="#00173A"/>
<path d="M47.8443 25.5961C46.1977 25.5961 44.6648 25.3172 43.2359 24.7593C41.807 24.2014 40.5484 23.4112 39.4696 22.3791C38.3814 21.3564 37.5297 20.1384 36.9147 18.7252C36.2996 17.312 35.9968 15.7593 35.9968 14.0486C35.9968 12.3378 36.2996 10.7851 36.9147 9.37191C37.5297 7.95868 38.3814 6.74071 39.4696 5.71798C40.5579 4.69525 41.8164 3.90496 43.2359 3.33781C44.6648 2.77996 46.1977 2.50104 47.8443 2.50104C49.4908 2.50104 51.0333 2.77996 52.4716 3.33781C53.91 3.89567 55.1685 4.69525 56.2378 5.71798C57.3166 6.74071 58.1588 7.95868 58.7739 9.37191C59.389 10.7851 59.6918 12.3378 59.6918 14.0486C59.6918 15.7593 59.3795 17.312 58.7739 18.7252C58.1588 20.1384 57.3071 21.3564 56.2189 22.3791C55.1307 23.4019 53.8721 24.1922 52.4527 24.7593C51.0238 25.3172 49.4908 25.5961 47.8443 25.5961ZM47.8443 20.78C49.0555 20.78 50.1059 20.4917 51.0049 19.906C51.9038 19.3203 52.6041 18.53 53.1151 17.5165C53.6166 16.5031 53.8721 15.3502 53.8721 14.0579C53.8721 12.7655 53.6166 11.5847 53.1151 10.5806C52.6136 9.57645 51.9038 8.78616 51.0049 8.20042C50.1059 7.61467 49.0555 7.32645 47.8443 7.32645C46.633 7.32645 45.5543 7.61467 44.6553 8.20042C43.7563 8.78616 43.0561 9.57645 42.564 10.5806C42.0719 11.5847 41.8259 12.7469 41.8259 14.0579C41.8259 15.3688 42.0719 16.5031 42.564 17.5165C43.0561 18.53 43.7563 19.3295 44.6553 19.906C45.5543 20.4824 46.6141 20.78 47.8443 20.78Z" fill="#00173A"/>
<path d="M72.9966 2.72418C74.9081 2.72418 76.4884 3.06819 77.7564 3.74691C79.015 4.42563 79.9613 5.32749 80.5858 6.44319C81.2103 7.56819 81.5226 8.78616 81.5226 10.0971C81.5226 10.999 81.3523 11.9008 81.0116 12.7841C80.671 13.6674 80.16 14.4669 79.4692 15.1736C78.7784 15.8895 77.8983 16.4473 76.8196 16.875C75.7408 17.2934 74.4728 17.5072 72.9966 17.5072H68.1232V25.3636H62.3982V2.72418H72.9966ZM75.6935 10.0971C75.6935 9.27893 75.438 8.62811 74.9365 8.15393C74.4349 7.67976 73.6684 7.43802 72.6275 7.43802H68.1137V12.7748H72.6275C73.3088 12.7748 73.8766 12.6725 74.3214 12.468C74.7661 12.2634 75.1068 11.9566 75.3434 11.5475C75.5799 11.1384 75.6935 10.655 75.6935 10.0878V10.0971ZM75.8922 15.5641L81.9484 25.3636H75.6273L69.9022 15.5641H75.8922Z" fill="#00173A"/>
<path d="M84.6832 2.72418H90.4083V11.5196H92.0264L99.1046 2.72418H105.89L97.0039 13.8161L106.259 25.3636H99.152L92.0737 16.2428H90.4272V25.3636H84.7022V2.72418H84.6832Z" fill="#00173A"/>
<path d="M127.446 10.1064C127.446 11.0083 127.276 11.9101 126.935 12.7934C126.594 13.6767 126.083 14.4762 125.392 15.1829C124.702 15.8988 123.822 16.4566 122.743 16.8843C121.664 17.3027 120.396 17.5165 118.92 17.5165H114.047V25.3729H108.321V2.72418H118.92C120.831 2.72418 122.412 3.06819 123.68 3.74691C124.938 4.42563 125.885 5.32749 126.509 6.44319C127.134 7.56819 127.446 8.78616 127.446 10.0971V10.1064ZM118.56 12.7934C119.242 12.7934 119.809 12.6911 120.254 12.4866C120.699 12.282 121.04 11.9752 121.276 11.5661C121.513 11.157 121.626 10.6736 121.626 10.1064C121.626 9.28823 121.371 8.6374 120.869 8.16323C120.368 7.68906 119.601 7.44732 118.56 7.44732H114.047V12.7841H118.56V12.7934Z" fill="#00173A"/>
<path d="M152.948 13.0909C152.854 11.7614 152.57 10.5155 152.068 9.37191C151.453 7.95868 150.611 6.74071 149.532 5.71798C148.454 4.69525 147.204 3.90496 145.766 3.33781C144.328 2.77996 142.785 2.50104 141.139 2.50104C139.492 2.50104 137.959 2.77996 136.53 3.33781C135.101 3.89567 133.843 4.69525 132.764 5.71798C131.676 6.74071 130.824 7.95868 130.209 9.37191C129.717 10.5155 129.424 11.7521 129.329 13.0909H135.158C135.253 12.1612 135.48 11.3244 135.849 10.5713C136.341 9.56715 137.041 8.77686 137.94 8.19112C138.839 7.60538 139.899 7.31715 141.129 7.31715C142.359 7.31715 143.391 7.60538 144.29 8.19112C145.189 8.77686 145.889 9.56715 146.4 10.5713C146.911 11.5754 147.11 13.0909 147.11 13.0909" fill="#00173A"/>
<path d="M146.977 15.8802C146.854 16.4566 146.665 17.0052 146.41 17.5072C145.908 18.5207 145.198 19.3202 144.299 19.8967C143.4 20.4824 142.35 20.7707 141.139 20.7707C139.927 20.7707 138.849 20.4824 137.95 19.8967C137.051 19.3109 136.351 18.5207 135.858 17.5072C135.612 16.9959 135.423 16.4566 135.3 15.8802H129.433C129.575 16.8843 129.831 17.8326 130.209 18.7252C130.824 20.1384 131.676 21.3564 132.764 22.3791C133.852 23.4019 135.111 24.1921 136.53 24.7593C137.959 25.3171 139.492 25.5961 141.139 25.5961C142.785 25.5961 144.318 25.3171 145.747 24.7593C147.176 24.2014 148.435 23.4111 149.513 22.3791C150.602 21.3564 151.453 20.1384 152.068 18.7252C152.456 17.8419 152.702 16.8843 152.844 15.8802H146.968H146.977Z" fill="#FFCA1D"/>
<path d="M155.693 2.72418H161.418V25.3636H155.693V2.72418Z" fill="#00173A"/>
<path d="M185.122 2.72418V25.3636H179.359L170.767 11.6498V25.3636H165.042V2.72418H170.805L179.397 16.531V2.72418H185.122Z" fill="#00173A"/>
<path d="M187.857 2.72418H207.909V7.44732H200.736V25.3636H195.011V7.44732H187.866V2.72418H187.857Z" fill="#00173A"/>
<path d="M141.139 17.6839C142.837 17.6839 144.214 16.0563 144.214 14.0485C144.214 12.0408 142.837 10.4132 141.139 10.4132C139.44 10.4132 138.063 12.0408 138.063 14.0485C138.063 16.0563 139.44 17.6839 141.139 17.6839Z" fill="#FFCA1D"/>
</svg>
