<svg width="64" height="64" viewBox="0 0 64 64" fill="none" xmlns="http://www.w3.org/2000/svg">
<rect width="64" height="64" rx="8" fill="#3ADAD9"/>
<path d="M37.0007 35.9984H18.0007L27.5007 18.9984L37.0007 35.9984Z" stroke="white" stroke-width="2" stroke-linejoin="round"/>
<path d="M32.5842 28.1571C34.3067 27.1867 36.3009 26.8105 38.2586 27.0866C40.2163 27.3627 42.0286 28.2757 43.4155 29.6846C44.8025 31.0936 45.6869 32.92 45.9322 34.8818C46.1775 36.8436 45.7699 38.8316 44.7726 40.5386C43.7752 42.2457 42.2435 43.5768 40.414 44.3264C38.5845 45.076 36.5592 45.2023 34.6507 44.6859C32.7423 44.1694 31.0571 43.039 29.8553 41.4691C28.6535 39.8992 28.0021 37.9773 28.0017 36.0002" stroke="white" stroke-width="2" stroke-linejoin="round"/>
</svg>
