<svg width="64" height="64" viewBox="0 0 64 64" fill="none" xmlns="http://www.w3.org/2000/svg">
<g id="people">
<rect width="64" height="64" rx="8" fill="#F3C758"/>
<path id="Vector" d="M41.1278 26.5013C40.9446 29.0435 39.0587 31.0019 37.0022 31.0019C34.9456 31.0019 33.0566 29.0441 32.8766 26.5013C32.6891 23.8565 34.525 22.0006 37.0022 22.0006C39.4794 22.0006 41.3153 23.9047 41.1278 26.5013Z" stroke="white" stroke-width="2" stroke-linecap="round" stroke-linejoin="round"/>
<path id="Vector_2" d="M37.0009 35.0013C32.9278 35.0013 29.0109 37.0244 28.0297 40.9644C27.8997 41.4857 28.2266 42.0013 28.7622 42.0013H45.2403C45.7759 42.0013 46.1009 41.4857 45.9728 40.9644C44.9916 36.9613 41.0747 35.0013 37.0009 35.0013Z" stroke="white" stroke-width="2" stroke-miterlimit="10"/>
<path id="Vector_3" d="M28.5029 27.6238C28.3566 29.6546 26.8322 31.254 25.1891 31.254C23.5459 31.254 22.019 29.6552 21.8752 27.6238C21.7258 25.511 23.2095 24.001 25.1891 24.001C27.1686 24.001 28.6524 25.5498 28.5029 27.6238Z" stroke="white" stroke-width="2" stroke-linecap="round" stroke-linejoin="round"/>
<path id="Vector_4" d="M28.8763 35.1254C27.748 34.6084 26.5054 34.4096 25.1883 34.4096C21.9378 34.4096 18.8061 36.0255 18.0217 39.1728C17.9185 39.5891 18.1798 40.0011 18.6074 40.0011H25.6259" stroke="white" stroke-width="2" stroke-miterlimit="10" stroke-linecap="round"/>
</g>
</svg>
