<svg width="64" height="64" viewBox="0 0 64 64" fill="none" xmlns="http://www.w3.org/2000/svg">
<rect width="64" height="64" rx="8" fill="#8382F3"/>
<path d="M18.0002 18.0004V45.0004C18.0002 45.2656 18.1055 45.52 18.293 45.7075C18.4806 45.8951 18.7349 46.0004 19.0002 46.0004H46.0002" stroke="white" stroke-width="2" stroke-linecap="round" stroke-linejoin="round"/>
<path d="M25.751 29.9993H23.2506C22.5602 29.9993 22.0005 30.5591 22.0005 31.2495V40.7509C22.0005 41.4413 22.5602 42.001 23.2506 42.001H25.751C26.4414 42.001 27.0012 41.4413 27.0012 40.7509V31.2495C27.0012 30.5591 26.4414 29.9993 25.751 29.9993Z" stroke="white" stroke-width="2" stroke-linecap="round" stroke-linejoin="round"/>
<path d="M34.7516 27.0007H32.2516C31.5612 27.0007 31.0016 27.5603 31.0016 28.2507V40.7507C31.0016 41.441 31.5612 42.0007 32.2516 42.0007H34.7516C35.4419 42.0007 36.0016 41.441 36.0016 40.7507V28.2507C36.0016 27.5603 35.4419 27.0007 34.7516 27.0007Z" stroke="white" stroke-width="2" stroke-linecap="round" stroke-linejoin="round"/>
<path d="M43.7278 22.9999H41.2278C40.5374 22.9999 39.9778 23.5595 39.9778 24.2499V40.7499C39.9778 41.4402 40.5374 41.9999 41.2278 41.9999H43.7278C44.4181 41.9999 44.9778 41.4402 44.9778 40.7499V24.2499C44.9778 23.5595 44.4181 22.9999 43.7278 22.9999Z" stroke="white" stroke-width="2" stroke-linecap="round" stroke-linejoin="round"/>
</svg>
