<svg width="1440" height="704" viewBox="0 0 1440 704" fill="none" xmlns="http://www.w3.org/2000/svg">
<g clip-path="url(#clip0_301_3668)">
<path d="M0 0L1037 0L782.935 704H0V0Z" fill="#4B4AEF" fill-opacity="0.8"/>
<path d="M-223.616 202.311C-472.991 203.649 -516.001 351.873 -598.28 322.436C-610.27 161.893 -671.845 -151.934 -666.262 -161.937C-660.679 -171.939 207.015 -198.532 688.9 -222.776L698.093 -66.1002C601.271 36.3284 683.865 57.5549 313.684 71.9633C52.1658 82.1422 55.5217 200.812 -223.616 202.311Z" fill="white" fill-opacity="0.1"/>
<path d="M-342.418 179.657C-591.588 189.862 -629.301 339.521 -712.574 313.028C-730.265 153.013 -802.96 -158.426 -797.736 -168.621C-792.512 -178.815 73.687 -236.245 554.405 -277.608L569.163 -121.359C476.045 -15.552 559.341 2.72423 189.907 30.2864C-71.084 49.7579 -63.5106 168.234 -342.418 179.657Z" fill="white" fill-opacity="0.1"/>
<path d="M-73.4292 470.126C-198.882 387.434 -364.181 401.411 -431.148 418.736C-441.945 525.158 -462.422 739.702 -457.957 746.506C-453.493 753.309 329.438 813.591 720.345 842.882L728.845 738.955C650.951 668.201 576.396 607.779 330.965 615.873C143.498 622.054 83.3873 573.491 -73.4292 470.126Z" fill="white" fill-opacity="0.1"/>
<path d="M40.8923 623.719C-89.5653 565.466 -253.617 582.614 -319.336 598.469C-323.322 680.182 -330.071 844.864 -325.183 849.886C-320.294 854.908 464.799 870.302 856.735 877.372L858.589 797.654C776.349 746.658 698.1 703.425 453.713 719.215C267.044 731.277 203.964 696.535 40.8923 623.719Z" fill="white" fill-opacity="0.1"/>
</g>
<defs>
<clipPath id="clip0_301_3668">
<rect width="1440" height="704" fill="white"/>
</clipPath>
</defs>
</svg>
