<svg width="1440" height="379" viewBox="0 0 1440 379" fill="none" xmlns="http://www.w3.org/2000/svg">
<g clip-path="url(#clip0_301_3786)">
<rect width="1440" height="379" fill="#4B4AEF"/>
<path d="M103.206 223.998C-141.507 271.986 -156.075 425.655 -242.395 412.135C-284.155 256.657 -403.248 -40.1337 -399.631 -51.0052C-396.015 -61.8767 451.358 -250.399 920.188 -364.405L958.477 -212.203C882.498 -93.4526 967.594 -88.0571 606.655 -4.61943C351.665 54.326 377.123 170.283 103.206 223.998Z" fill="white" fill-opacity="0.05"/>
<path d="M-138.602 188.934C-385.885 221.167 -410.24 373.586 -495.522 354.571C-527.265 196.743 -627.158 -107.053 -622.854 -117.671C-618.551 -128.288 239.15 -262.209 714.314 -345.987L742.803 -191.649C659.392 -78.0053 743.971 -67.1769 378.432 -7.00299C120.193 35.5075 138.193 152.854 -138.602 188.934Z" fill="white" fill-opacity="0.05"/>
<path d="M1295.79 130.002C1540.51 82.0141 1555.08 -71.6554 1641.4 -58.1346C1683.16 97.3434 1802.25 394.134 1798.63 405.005C1795.02 415.877 947.642 604.399 478.812 718.405L440.523 566.203C516.502 447.453 431.406 442.057 792.345 358.619C1047.33 299.674 1021.88 183.717 1295.79 130.002Z" fill="white" fill-opacity="0.05"/>
<path d="M1537.6 165.066C1784.88 132.833 1809.24 -19.5863 1894.52 -0.571105C1926.27 157.257 2026.16 461.053 2021.85 471.671C2017.55 482.288 1159.85 616.209 684.686 699.987L656.197 545.649C739.608 432.005 655.029 421.177 1020.57 361.003C1278.81 318.492 1260.81 201.146 1537.6 165.066Z" fill="white" fill-opacity="0.05"/>
</g>
<defs>
<clipPath id="clip0_301_3786">
<rect width="1440" height="379" fill="white"/>
</clipPath>
</defs>
</svg>
