<svg width="28" height="28" viewBox="0 0 28 28" fill="none" xmlns="http://www.w3.org/2000/svg">
<g id="checkmark-circle">
<path id="Vector" d="M14.0017 2.62531C7.7296 2.62531 2.62671 7.7282 2.62671 14.0003C2.62671 20.2724 7.7296 25.3753 14.0017 25.3753C20.2738 25.3753 25.3767 20.2724 25.3767 14.0003C25.3767 7.7282 20.2738 2.62531 14.0017 2.62531ZM19.9216 10.188L12.5716 18.938C12.491 19.0341 12.3907 19.1117 12.2775 19.1655C12.1642 19.2194 12.0408 19.2483 11.9154 19.2503H11.9006C11.778 19.2503 11.6567 19.2244 11.5447 19.1745C11.4327 19.1246 11.3324 19.0516 11.2504 18.9605L8.10038 15.4605C8.02038 15.3756 7.95815 15.2756 7.91735 15.1664C7.87654 15.0571 7.85799 14.9408 7.86277 14.8243C7.86755 14.7078 7.89558 14.5934 7.9452 14.4879C7.99482 14.3824 8.06503 14.2878 8.15172 14.2098C8.2384 14.1318 8.3398 14.0719 8.44997 14.0336C8.56013 13.9954 8.67682 13.9795 8.7932 13.987C8.90957 13.9945 9.02328 14.0252 9.12763 14.0772C9.23198 14.1293 9.32488 14.2017 9.40085 14.2901L11.8776 17.042L18.5818 9.06257C18.7322 8.88871 18.9449 8.78101 19.1741 8.76275C19.4032 8.74449 19.6304 8.81714 19.8064 8.96499C19.9824 9.11284 20.0932 9.32403 20.1147 9.55289C20.1363 9.78175 20.0669 10.0099 19.9216 10.188Z" fill="#FFCA1D"/>
</g>
</svg>
