<svg width="423" height="422" viewBox="0 0 423 422" fill="none" xmlns="http://www.w3.org/2000/svg">
<path d="M388.882 225.314C389.075 228.035 389.207 230.773 389.275 233.527L387.775 233.561C387.809 234.921 387.827 236.285 387.83 237.652C387.832 239.019 387.819 240.382 387.79 241.742L389.29 241.777C389.232 244.53 389.111 247.268 388.928 249.99L387.431 249.886C387.248 252.61 387.003 255.316 386.697 258.004L388.187 258.176C387.876 260.91 387.502 263.625 387.067 266.319L385.586 266.077C385.152 268.769 384.656 271.44 384.1 274.09L385.568 274.4C385.003 277.09 384.377 279.758 383.692 282.402L382.24 282.023C381.556 284.66 380.812 287.273 380.01 289.861L381.442 290.307C380.629 292.931 379.755 295.529 378.824 298.1L377.414 297.586C376.486 300.146 375.501 302.678 374.458 305.181L375.843 305.76C374.788 308.294 373.676 310.798 372.508 313.271L371.151 312.628C369.989 315.088 368.772 317.516 367.5 319.912L368.825 320.617C367.539 323.04 366.199 325.429 364.805 327.784L363.514 327.018C362.128 329.357 360.69 331.662 359.201 333.93L360.455 334.755C358.951 337.046 357.395 339.301 355.788 341.517L354.573 340.635C352.978 342.835 351.333 344.997 349.64 347.119L350.813 348.056C349.104 350.197 347.346 352.298 345.541 354.358L344.413 353.368C342.622 355.411 340.785 357.412 338.903 359.37L339.985 360.41C338.088 362.385 336.144 364.315 334.157 366.201L333.123 365.112C331.154 366.98 329.141 368.804 327.086 370.582L328.068 371.717C325.998 373.508 323.885 375.252 321.733 376.948L320.803 375.769C318.671 377.448 316.499 379.08 314.288 380.662L315.163 381.882C312.938 383.475 310.674 385.017 308.373 386.509L307.555 385.25C305.279 386.725 302.966 388.15 300.618 389.523L301.377 390.818C299.015 392.199 296.619 393.527 294.189 394.801L293.491 393.472C291.089 394.731 288.654 395.937 286.188 397.088L286.825 398.447C284.347 399.604 281.838 400.705 279.299 401.75L278.726 400.363C276.219 401.394 273.683 402.37 271.119 403.289L271.628 404.701C269.054 405.623 266.454 406.488 263.827 407.294L263.384 405.86C260.794 406.655 258.178 407.392 255.538 408.071L255.914 409.524C253.269 410.203 250.6 410.824 247.909 411.384L247.601 409.916C244.95 410.468 242.278 410.96 239.586 411.393L239.826 412.874C237.132 413.307 234.417 413.679 231.683 413.991L231.511 412.5C228.823 412.806 226.116 413.053 223.392 413.238L223.497 414.734C220.776 414.919 218.038 415.043 215.284 415.105L215.248 413.605C213.888 413.636 212.524 413.652 211.157 413.652C209.789 413.652 208.425 413.636 207.065 413.605L207.034 415.105C204.281 415.043 201.542 414.919 198.82 414.734L198.919 413.238C196.195 413.053 193.487 412.806 190.798 412.5L190.631 413.991C187.896 413.679 185.18 413.307 182.484 412.874L182.719 411.393C180.025 410.96 177.351 410.468 174.699 409.916L174.396 411.384C171.702 410.824 169.031 410.203 166.384 409.524L166.754 408.071C164.112 407.392 161.493 406.655 158.9 405.86L158.463 407.294C155.833 406.488 153.229 405.623 150.652 404.701L151.155 403.289C148.588 402.37 146.049 401.394 143.538 400.363L142.97 401.75C140.427 400.705 137.914 399.604 135.432 398.447L136.063 397.088C133.593 395.937 131.154 394.731 128.747 393.472L128.054 394.801C125.62 393.527 123.218 392.199 120.851 390.818L121.605 389.523C119.253 388.15 116.934 386.725 114.652 385.25L113.839 386.509C111.533 385.017 109.264 383.475 107.032 381.882L107.902 380.662C105.686 379.08 103.508 377.448 101.369 375.769L100.444 376.948C98.2851 375.252 96.1661 373.508 94.089 371.717L95.0673 370.582C93.0059 368.804 90.986 366.98 89.0094 365.112L87.9799 366.201C85.9857 364.315 84.0351 362.385 82.1299 360.41L83.2083 359.37C81.3189 357.412 79.4744 355.411 77.6766 353.368L76.5514 354.358C74.7389 352.298 72.9734 350.197 71.2566 348.056L72.4263 347.119C70.7251 344.997 69.0721 342.835 67.469 340.635L66.2573 341.517C64.6424 339.301 63.0776 337.046 61.5646 334.755L62.8159 333.93C61.3181 331.662 59.8715 329.357 58.4778 327.018L57.1895 327.784C55.7868 325.429 54.4372 323.04 53.1422 320.617L54.4648 319.912C53.1842 317.516 51.9576 315.088 50.7865 312.628L49.4324 313.271C48.255 310.798 47.1333 308.293 46.0689 305.76L47.4517 305.181C46.4004 302.678 45.4054 300.146 44.4684 297.586L43.06 298.1C42.1191 295.529 41.2361 292.931 40.4127 290.307L41.8438 289.861C41.0318 287.273 40.2782 284.66 39.5845 282.023L38.1339 282.402C37.4384 279.758 36.8027 277.09 36.2282 274.4L37.6951 274.09C37.1293 271.44 36.6234 268.769 36.1788 266.077L34.6989 266.319C34.2539 263.625 33.8699 260.91 33.5483 258.176L35.038 258.004C34.7218 255.316 34.4664 252.61 34.2733 249.886L32.7771 249.99C32.5841 247.268 32.4528 244.53 32.3846 241.777L33.8841 241.742C33.8504 240.382 33.8322 239.019 33.8297 237.652C33.8271 236.285 33.8403 234.921 33.8689 233.561L32.3693 233.527C32.4273 230.773 32.5484 228.035 32.7313 225.314L34.2279 225.417C34.4109 222.694 34.6562 219.988 34.9624 217.3L33.472 217.127C33.7835 214.394 34.1574 211.679 34.5924 208.985L36.0732 209.226C36.5078 206.535 37.0038 203.863 37.5597 201.214L36.0917 200.903C36.6562 198.213 37.282 195.545 37.9677 192.902L39.4197 193.281C40.1036 190.644 40.8475 188.03 41.6499 185.443L40.2171 184.996C41.0308 182.372 41.9041 179.774 42.8354 177.204L44.2458 177.717C45.1733 175.158 46.1588 172.626 47.2009 170.123L45.8159 169.544C46.8709 167.01 47.9833 164.506 49.1515 162.033L50.508 162.676C51.6699 160.216 52.8876 157.787 54.1593 155.392L52.8341 154.686C54.12 152.264 55.4608 149.874 56.8547 147.52L58.1459 148.286C59.5309 145.946 60.9689 143.642 62.4583 141.373L61.2039 140.549C62.7084 138.257 64.2648 136.003 65.8714 133.787L67.0864 134.668C68.6814 132.469 70.3263 130.307 72.0196 128.185L70.8465 127.248C72.5554 125.106 74.3131 123.005 76.1179 120.946L77.2467 121.936C79.037 119.893 80.874 117.892 82.7562 115.934L81.6739 114.893C83.5718 112.919 85.5152 110.988 87.5024 109.103L88.5359 110.192C90.5056 108.323 92.5187 106.499 94.5735 104.722L93.591 103.587C95.6614 101.796 97.7739 100.051 99.9268 98.3557L100.856 99.5348C102.988 97.8554 105.161 96.2239 107.371 94.642L106.496 93.4216C108.722 91.829 110.986 90.2862 113.286 88.7948L114.104 90.0539C116.381 88.5782 118.694 87.1532 121.041 85.7807L120.282 84.4854C122.644 83.1048 125.041 81.7767 127.47 80.5029L128.169 81.8317C130.571 80.5724 133.005 79.3666 135.471 78.2157L134.835 76.8563C137.313 75.6998 139.822 74.5984 142.36 73.5537L142.933 74.941C145.44 73.9093 147.976 72.9334 150.54 72.0147L150.032 70.6026C152.605 69.6805 155.206 68.8156 157.833 68.0094L158.275 69.4435C160.865 68.6485 163.481 67.9112 166.121 67.2329L165.745 65.7801C168.39 65.1005 171.059 64.4798 173.75 63.9193L174.059 65.3879C176.709 64.836 179.381 64.3431 182.074 63.9107L181.833 62.4297C184.528 61.9969 187.242 61.6242 189.976 61.3129L190.149 62.8033C192.837 62.4972 195.543 62.251 198.267 62.0661L198.163 60.5695C200.884 60.3847 203.622 60.2606 206.375 60.1986L206.412 61.6982C207.772 61.6675 209.135 61.6521 210.503 61.6521C211.87 61.6521 213.234 61.6675 214.594 61.6982L214.625 60.1986C217.379 60.2606 220.117 60.3847 222.839 60.5695L222.74 62.0661C225.465 62.251 228.172 62.4972 230.861 62.8033L231.028 61.3129C233.763 61.6242 236.479 61.9969 239.175 62.4297L238.94 63.9107C241.635 64.3431 244.308 64.836 246.961 65.3879L247.264 63.9193C249.957 64.4798 252.628 65.1005 255.276 65.7801L254.905 67.2329C257.548 67.9112 260.166 68.6485 262.759 69.4435L263.197 68.0094C265.826 68.8156 268.43 69.6805 271.007 70.6026L270.504 72.0147C273.071 72.9334 275.611 73.9093 278.121 74.941L278.689 73.5537C281.232 74.5984 283.745 75.6998 286.227 76.8563L285.596 78.2157C288.066 79.3666 290.505 80.5724 292.912 81.8317L293.605 80.5029C296.04 81.7767 298.441 83.1048 300.808 84.4854L300.054 85.7807C302.407 87.1532 304.725 88.5782 307.007 90.0539L307.82 88.7948C310.126 90.2862 312.396 91.829 314.627 93.4216L313.757 94.642C315.973 96.2239 318.152 97.8554 320.29 99.5348L321.215 98.3557C323.374 100.051 325.493 101.796 327.57 103.587L326.592 104.722C328.653 106.499 330.673 108.323 332.65 110.192L333.679 109.103C335.674 110.988 337.624 112.919 339.529 114.893L338.451 115.934C340.34 117.892 342.185 119.893 343.983 121.936L345.108 120.946C346.92 123.005 348.686 125.106 350.403 127.248L349.233 128.185C350.934 130.307 352.587 132.469 354.19 134.668L355.402 133.787C357.017 136.003 358.582 138.257 360.095 140.549L358.843 141.373C360.341 143.642 361.788 145.947 363.182 148.286L364.47 147.52C365.873 149.874 367.222 152.264 368.517 154.686L367.195 155.392C368.475 157.787 369.702 160.216 370.873 162.676L372.227 162.033C373.404 164.506 374.526 167.01 375.59 169.544L374.208 170.123C375.259 172.626 376.254 175.158 377.191 177.717L378.599 177.204C379.54 179.774 380.423 182.372 381.247 184.996L379.816 185.443C380.628 188.031 381.381 190.644 382.075 193.281L383.525 192.902C384.221 195.545 384.857 198.213 385.431 200.903L383.964 201.214C384.53 203.863 385.036 206.535 385.481 209.226L386.96 208.985C387.405 211.679 387.789 214.394 388.111 217.127L386.621 217.3C386.938 219.988 387.193 222.694 387.386 225.417L388.882 225.314Z" stroke="#DCDCE2" stroke-width="3" stroke-dasharray="8 8"/>
<path d="M346.678 226.904C346.926 229.599 347.095 232.318 347.182 235.057L345.683 235.102C345.725 236.447 345.748 237.797 345.751 239.152C345.753 240.507 345.736 241.857 345.698 243.202L347.197 243.247C347.12 245.986 346.962 248.704 346.723 251.4L345.229 251.265C344.991 253.961 344.672 256.634 344.275 259.282L345.758 259.507C345.353 262.214 344.866 264.895 344.301 267.547L342.834 267.232C342.271 269.877 341.628 272.492 340.91 275.077L342.356 275.481C341.624 278.113 340.814 280.713 339.929 283.278L338.511 282.786C337.631 285.337 336.675 287.854 335.646 290.332L337.031 290.91C335.985 293.43 334.864 295.911 333.672 298.351L332.324 297.691C331.14 300.114 329.884 302.496 328.56 304.834L329.865 305.575C328.522 307.947 327.108 310.274 325.627 312.553L324.369 311.734C322.901 313.994 321.367 316.206 319.769 318.368L320.975 319.261C319.356 321.451 317.673 323.59 315.927 325.676L314.776 324.712C313.048 326.776 311.258 328.788 309.41 330.744L310.501 331.775C308.632 333.753 306.703 335.674 304.718 337.537L303.691 336.442C301.728 338.282 299.71 340.065 297.639 341.786L298.599 342.94C296.507 344.678 294.362 346.355 292.166 347.966L291.277 346.756C289.11 348.347 286.893 349.874 284.628 351.335L285.443 352.596C283.159 354.069 280.828 355.475 278.452 356.812L277.715 355.505C275.373 356.822 272.987 358.072 270.56 359.25L271.218 360.6C268.775 361.786 266.291 362.9 263.769 363.941L263.194 362.555C260.714 363.579 258.195 364.53 255.642 365.407L256.131 366.826C253.565 367.707 250.964 368.513 248.331 369.242L247.928 367.796C245.343 368.512 242.727 369.152 240.081 369.714L240.395 371.182C237.744 371.745 235.063 372.232 232.356 372.638L232.13 371.155C229.483 371.552 226.809 371.873 224.113 372.113L224.249 373.608C221.554 373.848 218.835 374.01 216.096 374.091L216.049 372.592C214.704 372.632 213.354 372.652 211.999 372.652C210.644 372.652 209.293 372.632 207.948 372.592L207.906 374.091C205.167 374.01 202.448 373.848 199.752 373.608L199.882 372.113C197.185 371.873 194.511 371.552 191.862 371.155L191.642 372.638C188.933 372.232 186.25 371.745 183.597 371.182L183.906 369.714C181.258 369.152 178.639 368.512 176.051 367.796L175.654 369.242C173.018 368.513 170.414 367.707 167.844 366.826L168.329 365.407C165.772 364.53 163.25 363.579 160.766 362.555L160.196 363.941C157.67 362.9 155.182 361.786 152.735 360.6L153.387 359.25C150.956 358.072 148.566 356.822 146.219 355.505L145.486 356.812C143.105 355.475 140.769 354.069 138.48 352.596L139.29 351.335C137.02 349.874 134.797 348.347 132.624 346.756L131.739 347.966C129.537 346.355 127.386 344.678 125.288 342.94L126.244 341.786C124.166 340.065 122.141 338.282 120.172 336.442L119.149 337.537C117.157 335.674 115.221 333.753 113.345 331.775L114.432 330.744C112.576 328.788 110.779 326.776 109.044 324.712L107.896 325.676C106.142 323.59 104.451 321.451 102.824 319.261L104.027 318.368C102.421 316.206 100.878 313.994 99.4021 311.734L98.1468 312.553C96.6576 310.274 95.2355 307.947 93.8832 305.575L95.1859 304.834C93.8527 302.496 92.5881 300.114 91.395 297.691L90.0495 298.351C88.848 295.911 87.7182 293.43 86.6626 290.91L88.046 290.332C87.0079 287.854 86.0424 285.337 85.1524 282.786L83.7362 283.278C82.8415 280.713 82.0222 278.113 81.2808 275.481L82.7246 275.077C81.9968 272.492 81.3451 269.877 80.7719 267.232L79.3059 267.547C78.7312 264.895 78.2346 262.214 77.8187 259.507L79.3013 259.282C78.8945 256.634 78.5657 253.961 78.3173 251.265L76.8236 251.4C76.5753 248.704 76.4065 245.986 76.3195 243.247L77.8187 243.202C77.776 241.857 77.7533 240.507 77.7507 239.152C77.7482 237.797 77.766 236.447 77.8037 235.102L76.3043 235.057C76.3811 232.318 76.5398 229.599 76.7781 226.904L78.2723 227.039C78.5107 224.342 78.8295 221.669 79.2265 219.022L77.7431 218.797C78.1489 216.09 78.6356 213.409 79.2005 210.757L80.6676 211.072C81.2309 208.427 81.873 205.811 82.5912 203.227L81.1459 202.823C81.8775 200.191 82.6871 197.591 83.5723 195.026L84.9903 195.518C85.8709 192.966 86.8269 190.45 87.8559 187.971L86.4704 187.394C87.5165 184.874 88.6372 182.393 89.8296 179.952L91.1776 180.613C92.3617 178.19 93.6174 175.808 94.9419 173.47L93.6365 172.728C94.9799 170.357 96.3934 168.03 97.8742 165.751L99.1325 166.569C100.6 164.31 102.134 162.098 103.733 159.936L102.526 159.043C104.145 156.853 105.829 154.714 107.575 152.628L108.726 153.592C110.454 151.528 112.243 149.516 114.092 147.56L113.001 146.529C114.87 144.551 116.798 142.63 118.784 140.767L119.811 141.862C121.773 140.021 123.791 138.239 125.862 136.518L124.903 135.363C126.994 133.625 129.139 131.949 131.335 130.337L132.224 131.547C134.391 129.957 136.609 128.43 138.873 126.969L138.058 125.708C140.342 124.235 142.673 122.828 145.049 121.491L145.787 122.799C148.128 121.481 150.514 120.232 152.941 119.054L152.284 117.704C154.726 116.518 157.21 115.403 159.733 114.362L160.307 115.749C162.788 114.725 165.306 113.774 167.86 112.897L167.37 111.478C169.936 110.597 172.537 109.791 175.171 109.062L175.573 110.507C178.158 109.792 180.775 109.152 183.421 108.589L183.106 107.122C185.758 106.558 188.439 106.072 191.146 105.666L191.371 107.149C194.019 106.751 196.692 106.431 199.389 106.19L199.252 104.696C201.948 104.456 204.666 104.294 207.405 104.213L207.452 105.712C208.797 105.672 210.148 105.652 211.503 105.652C212.858 105.652 214.208 105.672 215.554 105.712L215.595 104.213C218.334 104.294 221.053 104.456 223.75 104.696L223.619 106.19C226.316 106.431 228.991 106.751 231.64 107.149L231.86 105.666C234.568 106.072 237.251 106.558 239.905 107.122L239.596 108.589C242.244 109.152 244.863 109.792 247.45 110.507L247.848 109.062C250.484 109.791 253.088 110.597 255.657 111.478L255.173 112.897C257.73 113.774 260.251 114.725 262.736 115.749L263.305 114.362C265.831 115.403 268.319 116.518 270.767 117.704L270.114 119.054C272.546 120.232 274.936 121.481 277.283 122.799L278.015 121.491C280.396 122.828 282.733 124.235 285.022 125.708L284.212 126.969C286.482 128.43 288.704 129.957 290.878 131.547L291.762 130.337C293.964 131.949 296.115 133.625 298.213 135.363L297.258 136.518C299.335 138.239 301.36 140.021 303.329 141.862L304.352 140.767C306.345 142.63 308.28 144.551 310.157 146.529L309.069 147.56C310.925 149.516 312.722 151.528 314.458 153.592L315.605 152.628C317.359 154.714 319.051 156.853 320.678 159.043L319.474 159.936C321.081 162.098 322.623 164.31 324.099 166.569L325.355 165.751C326.844 168.03 328.266 170.357 329.618 172.728L328.316 173.47C329.649 175.808 330.913 178.19 332.106 180.613L333.452 179.952C334.653 182.393 335.783 184.874 336.839 187.394L335.455 187.971C336.494 190.45 337.459 192.966 338.349 195.518L339.765 195.026C340.66 197.591 341.479 200.191 342.221 202.823L340.777 203.227C341.505 205.811 342.156 208.427 342.73 211.072L344.196 210.757C344.77 213.409 345.267 216.09 345.683 218.797L344.2 219.022C344.607 221.669 344.936 224.342 345.184 227.039L346.678 226.904Z" stroke="#DCDCE2" stroke-width="3" stroke-dasharray="8 8"/>
<circle cx="9" cy="9" r="9" transform="matrix(1 0 0.00185734 0.999998 311 151.152)" fill="#25D68B"/>
<circle cx="7.5" cy="7.5" r="7.5" transform="matrix(0.866315 -0.499497 0.500503 0.865735 46 101.152)" fill="#FD9B79"/>
<circle cx="15.5" cy="15.5" r="15.5" transform="matrix(0.866315 -0.499497 0.500503 0.865735 127 395.152)" fill="#8382F3"/>
<circle cx="75.5" cy="75.5" r="75.5" transform="matrix(1 0 0.00185884 0.999998 160 0.0101318)" fill="#3ADAD9"/>
<circle cx="14" cy="14" r="14" transform="matrix(1 0 0.0018485 0.999998 186 86)" fill="#73E5E4"/>
<circle cx="6" cy="6" r="6" transform="matrix(1 0 0.00184848 0.999998 263 25)" fill="#73E5E4"/>
<path d="M224.17 64.6855H216.434C216.126 64.6855 215.831 64.5611 215.613 64.3397C215.396 64.1183 215.274 63.818 215.274 63.5049C215.274 63.1917 215.396 62.8915 215.613 62.67C215.831 62.4486 216.126 62.3242 216.434 62.3242H223.551L226.297 58.133C226.403 57.9706 226.547 57.8375 226.715 57.7453C226.884 57.6532 227.073 57.605 227.264 57.605C227.456 57.605 227.644 57.6532 227.813 57.7453C227.982 57.8375 228.125 57.9706 228.231 58.133L233.453 66.1023L235.58 62.8555C235.686 62.6926 235.829 62.5587 235.998 62.466C236.167 62.3733 236.355 62.3246 236.547 62.3242H241.189C241.496 62.3242 241.792 62.4486 242.009 62.67C242.227 62.8915 242.349 63.1917 242.349 63.5049C242.349 63.818 242.227 64.1183 242.009 64.3397C241.792 64.5611 241.496 64.6855 241.189 64.6855H237.166L234.42 68.8767C234.314 69.0391 234.17 69.1723 234.002 69.2644C233.833 69.3565 233.644 69.4047 233.453 69.4047C233.261 69.4047 233.073 69.3565 232.904 69.2644C232.735 69.1723 232.592 69.0391 232.486 68.8767L227.264 60.9075L225.137 64.1542C225.031 64.3172 224.888 64.451 224.719 64.5437C224.55 64.6364 224.362 64.6851 224.17 64.6855ZM244.283 45.0083C242.452 45.0074 240.649 45.4624 239.031 46.3336C237.413 47.2048 236.029 48.4657 235 50.0063C233.653 47.9851 231.703 46.4569 229.439 45.6465C227.174 44.8362 224.714 44.7863 222.42 45.5042C220.125 46.2222 218.118 47.6701 216.692 49.6352C215.267 51.6002 214.498 53.9787 214.5 56.4211C214.5 56.6966 214.5 56.9917 214.519 57.2672C214.539 57.5822 214.68 57.8765 214.912 58.0864C215.144 58.2963 215.447 58.405 215.757 58.3888C215.909 58.3813 216.057 58.3431 216.194 58.2764C216.331 58.2098 216.454 58.116 216.555 58.0005C216.655 57.8851 216.733 57.7503 216.782 57.6041C216.831 57.4579 216.851 57.3032 216.84 57.1491C216.821 56.8933 216.821 56.6572 216.821 56.4211C216.816 54.3252 217.527 52.2927 218.831 50.6704C220.135 49.0481 221.952 47.9366 223.972 47.5256C225.992 47.1146 228.09 47.4295 229.907 48.4166C231.724 49.4037 233.148 51.0018 233.936 52.9382C234.02 53.1564 234.166 53.3439 234.356 53.4761C234.545 53.6083 234.77 53.679 235 53.679C235.23 53.679 235.455 53.6083 235.644 53.4761C235.834 53.3439 235.98 53.1564 236.064 52.9382C236.852 51.0018 238.276 49.4037 240.093 48.4166C241.91 47.4295 244.008 47.1146 246.028 47.5256C248.048 47.9366 249.865 49.0481 251.169 50.6704C252.473 52.2927 253.184 54.3252 253.179 56.4211C253.179 67.6961 238.133 77.5347 235 79.4434C233.143 78.3021 227.071 74.3863 222.468 69.0342C222.368 68.916 222.246 68.8192 222.109 68.7492C221.972 68.6793 221.823 68.6376 221.67 68.6266C221.517 68.6157 221.364 68.6356 221.219 68.6853C221.073 68.735 220.939 68.8134 220.824 68.9161C220.594 69.1243 220.453 69.4158 220.431 69.7283C220.41 70.0408 220.509 70.3496 220.708 70.5887C226.471 77.2789 234.11 81.6669 234.439 81.844C234.609 81.9461 234.803 82 235 82C235.197 82 235.391 81.9461 235.561 81.844C239.087 79.7464 242.398 77.2942 245.443 74.5241C252.116 68.4045 255.5 62.3242 255.5 56.4211C255.5 53.3942 254.318 50.4914 252.215 48.3511C250.111 46.2108 247.258 45.0083 244.283 45.0083Z" fill="white"/>
<path d="M194.232 105V93.72H196.28V98.424H202.088V93.72H204.136V105H202.088V100.136H196.28V105H194.232ZM210.591 105.16C209.706 105.16 208.943 104.995 208.303 104.664C207.663 104.333 207.167 103.864 206.815 103.256C206.474 102.648 206.303 101.928 206.303 101.096C206.303 100.285 206.468 99.576 206.799 98.968C207.14 98.36 207.604 97.8853 208.191 97.544C208.788 97.192 209.466 97.016 210.223 97.016C210.97 97.016 211.61 97.176 212.143 97.496C212.676 97.816 213.087 98.2693 213.375 98.856C213.674 99.4427 213.823 100.141 213.823 100.952V101.544H207.919V100.392H212.415L212.159 100.632C212.159 99.9067 211.999 99.352 211.679 98.968C211.359 98.5733 210.9 98.376 210.303 98.376C209.855 98.376 209.471 98.4827 209.151 98.696C208.842 98.8987 208.602 99.192 208.431 99.576C208.271 99.9493 208.191 100.397 208.191 100.92V101.032C208.191 101.619 208.282 102.104 208.463 102.488C208.644 102.872 208.916 103.16 209.279 103.352C209.642 103.544 210.09 103.64 210.623 103.64C211.06 103.64 211.498 103.576 211.935 103.448C212.372 103.309 212.772 103.096 213.135 102.808L213.695 104.152C213.322 104.461 212.852 104.707 212.287 104.888C211.722 105.069 211.156 105.16 210.591 105.16ZM218.303 105.16C217.738 105.16 217.231 105.053 216.783 104.84C216.346 104.616 215.999 104.317 215.743 103.944C215.498 103.571 215.375 103.149 215.375 102.68C215.375 102.104 215.524 101.651 215.823 101.32C216.122 100.979 216.607 100.733 217.279 100.584C217.951 100.435 218.852 100.36 219.983 100.36H220.783V101.512H219.999C219.498 101.512 219.076 101.533 218.735 101.576C218.394 101.608 218.116 101.667 217.903 101.752C217.7 101.827 217.551 101.933 217.455 102.072C217.37 102.211 217.327 102.381 217.327 102.584C217.327 102.936 217.45 103.224 217.695 103.448C217.94 103.672 218.282 103.784 218.719 103.784C219.071 103.784 219.38 103.704 219.647 103.544C219.924 103.373 220.143 103.144 220.303 102.856C220.463 102.568 220.543 102.237 220.543 101.864V100.024C220.543 99.4907 220.426 99.1067 220.191 98.872C219.956 98.6373 219.562 98.52 219.007 98.52C218.57 98.52 218.122 98.5893 217.663 98.728C217.204 98.856 216.74 99.0587 216.271 99.336L215.695 97.976C215.972 97.784 216.298 97.6187 216.671 97.48C217.055 97.3307 217.455 97.2187 217.871 97.144C218.298 97.0587 218.698 97.016 219.071 97.016C219.839 97.016 220.468 97.1333 220.959 97.368C221.46 97.6027 221.834 97.96 222.079 98.44C222.324 98.9093 222.447 99.5173 222.447 100.264V105H220.575V103.336H220.703C220.628 103.709 220.479 104.035 220.255 104.312C220.042 104.579 219.77 104.787 219.439 104.936C219.108 105.085 218.73 105.16 218.303 105.16ZM227.517 105.16C226.589 105.16 225.901 104.909 225.453 104.408C225.016 103.896 224.797 103.149 224.797 102.168V93.72H226.797V102.072C226.797 102.381 226.84 102.648 226.925 102.872C227.021 103.085 227.16 103.245 227.341 103.352C227.522 103.459 227.746 103.512 228.013 103.512C228.13 103.512 228.248 103.507 228.365 103.496C228.482 103.485 228.594 103.464 228.701 103.432L228.669 105.016C228.477 105.059 228.285 105.091 228.093 105.112C227.912 105.144 227.72 105.16 227.517 105.16ZM233.607 105.16C232.562 105.16 231.783 104.899 231.271 104.376C230.759 103.853 230.503 103.091 230.503 102.088V98.68H228.999V97.176H230.503V94.84H232.503V97.176H234.871V98.68H232.503V101.976C232.503 102.488 232.615 102.872 232.839 103.128C233.063 103.384 233.426 103.512 233.927 103.512C234.076 103.512 234.231 103.496 234.391 103.464C234.551 103.421 234.716 103.379 234.887 103.336L235.191 104.808C234.999 104.915 234.754 105 234.455 105.064C234.167 105.128 233.884 105.16 233.607 105.16ZM236.484 105V93.72H238.484V98.744H238.26C238.494 98.1787 238.857 97.752 239.348 97.464C239.849 97.1653 240.414 97.016 241.044 97.016C241.673 97.016 242.19 97.1333 242.596 97.368C243.001 97.6027 243.305 97.96 243.508 98.44C243.71 98.9093 243.812 99.5067 243.812 100.232V105H241.812V100.328C241.812 99.9227 241.758 99.592 241.652 99.336C241.556 99.08 241.401 98.8933 241.188 98.776C240.985 98.648 240.724 98.584 240.404 98.584C240.02 98.584 239.684 98.6693 239.396 98.84C239.108 99 238.884 99.2347 238.724 99.544C238.564 99.8427 238.484 100.195 238.484 100.6V105H236.484ZM249.779 105.16C248.958 105.16 248.243 104.995 247.635 104.664C247.027 104.323 246.558 103.843 246.227 103.224C245.896 102.605 245.731 101.88 245.731 101.048C245.731 100.216 245.896 99.5013 246.227 98.904C246.558 98.296 247.027 97.832 247.635 97.512C248.243 97.1813 248.958 97.016 249.779 97.016C250.28 97.016 250.776 97.096 251.267 97.256C251.758 97.416 252.163 97.64 252.483 97.928L251.891 99.32C251.614 99.0747 251.299 98.888 250.947 98.76C250.606 98.632 250.275 98.568 249.955 98.568C249.262 98.568 248.723 98.7867 248.339 99.224C247.966 99.6507 247.779 100.264 247.779 101.064C247.779 101.853 247.966 102.477 248.339 102.936C248.723 103.384 249.262 103.608 249.955 103.608C250.264 103.608 250.595 103.544 250.947 103.416C251.299 103.288 251.614 103.096 251.891 102.84L252.483 104.248C252.163 104.525 251.752 104.749 251.251 104.92C250.76 105.08 250.27 105.16 249.779 105.16ZM256.559 105.16C255.994 105.16 255.487 105.053 255.039 104.84C254.602 104.616 254.255 104.317 253.999 103.944C253.754 103.571 253.631 103.149 253.631 102.68C253.631 102.104 253.78 101.651 254.079 101.32C254.378 100.979 254.863 100.733 255.535 100.584C256.207 100.435 257.108 100.36 258.239 100.36H259.039V101.512H258.255C257.754 101.512 257.332 101.533 256.991 101.576C256.65 101.608 256.372 101.667 256.159 101.752C255.956 101.827 255.807 101.933 255.711 102.072C255.626 102.211 255.583 102.381 255.583 102.584C255.583 102.936 255.706 103.224 255.951 103.448C256.196 103.672 256.538 103.784 256.975 103.784C257.327 103.784 257.636 103.704 257.903 103.544C258.18 103.373 258.399 103.144 258.559 102.856C258.719 102.568 258.799 102.237 258.799 101.864V100.024C258.799 99.4907 258.682 99.1067 258.447 98.872C258.212 98.6373 257.818 98.52 257.263 98.52C256.826 98.52 256.378 98.5893 255.919 98.728C255.46 98.856 254.996 99.0587 254.527 99.336L253.951 97.976C254.228 97.784 254.554 97.6187 254.927 97.48C255.311 97.3307 255.711 97.2187 256.127 97.144C256.554 97.0587 256.954 97.016 257.327 97.016C258.095 97.016 258.724 97.1333 259.215 97.368C259.716 97.6027 260.09 97.96 260.335 98.44C260.58 98.9093 260.703 99.5173 260.703 100.264V105H258.831V103.336H258.959C258.884 103.709 258.735 104.035 258.511 104.312C258.298 104.579 258.026 104.787 257.695 104.936C257.364 105.085 256.986 105.16 256.559 105.16ZM263.053 105V97.176H265.005V99.064H264.845C264.994 98.424 265.288 97.9387 265.725 97.608C266.162 97.2667 266.744 97.0693 267.469 97.016L268.077 96.968L268.205 98.664L267.053 98.776C266.402 98.84 265.912 99.0427 265.581 99.384C265.25 99.7147 265.085 100.184 265.085 100.792V105H263.053ZM273.37 105.16C272.484 105.16 271.722 104.995 271.082 104.664C270.442 104.333 269.946 103.864 269.594 103.256C269.252 102.648 269.082 101.928 269.082 101.096C269.082 100.285 269.247 99.576 269.578 98.968C269.919 98.36 270.383 97.8853 270.97 97.544C271.567 97.192 272.244 97.016 273.002 97.016C273.748 97.016 274.388 97.176 274.922 97.496C275.455 97.816 275.866 98.2693 276.154 98.856C276.452 99.4427 276.602 100.141 276.602 100.952V101.544H270.698V100.392H275.194L274.938 100.632C274.938 99.9067 274.778 99.352 274.458 98.968C274.138 98.5733 273.679 98.376 273.082 98.376C272.634 98.376 272.25 98.4827 271.93 98.696C271.62 98.8987 271.38 99.192 271.21 99.576C271.05 99.9493 270.97 100.397 270.97 100.92V101.032C270.97 101.619 271.06 102.104 271.242 102.488C271.423 102.872 271.695 103.16 272.058 103.352C272.42 103.544 272.868 103.64 273.402 103.64C273.839 103.64 274.276 103.576 274.714 103.448C275.151 103.309 275.551 103.096 275.914 102.808L276.474 104.152C276.1 104.461 275.631 104.707 275.066 104.888C274.5 105.069 273.935 105.16 273.37 105.16Z" fill="white"/>
<circle cx="61.5" cy="61.5" r="61.5" transform="matrix(1 0 0.00185884 0.999998 299 223)" fill="#FD9B79"/>
<circle cx="5.5" cy="5.5" r="5.5" transform="matrix(1 0 0.00184504 0.999998 383 243)" fill="#F49159"/>
<circle cx="14" cy="14" r="14" transform="matrix(1 0 0.00184506 0.999998 321 292)" fill="#F49159"/>
<path d="M372.867 270.769C374.403 270.769 375.876 270.165 376.962 269.089M372.867 270.769C371.331 270.769 369.858 270.165 368.772 269.089M372.867 270.769V275.069M376.962 269.089C378.048 268.014 378.658 266.555 378.658 265.034M376.962 269.089L380.033 272.13M378.658 265.034C378.658 263.513 378.048 262.055 376.962 260.979M378.658 265.034H383M376.962 260.979C375.876 259.904 374.403 259.3 372.867 259.3C371.331 259.3 369.858 259.904 368.772 260.979M376.962 260.979L380.033 257.94M368.772 260.979C367.686 262.055 367.075 263.513 367.075 265.034M368.772 260.979L365.701 257.94M367.075 265.034C367.075 266.555 367.686 268.014 368.772 269.089M367.075 265.034H362.733M368.772 269.089L365.701 272.13M371.902 255H373.831M372.867 255V259.301M379.35 257.264L380.715 258.616M383 264.079V265.991M380.715 271.455L379.35 272.806M373.831 275.069H371.902M366.383 272.806L365.018 271.455M362.733 265.991V264.079M365.018 258.616L366.383 257.264M360.2 271.44H357.667C356.995 271.44 356.35 271.704 355.875 272.174C355.4 272.645 355.133 273.283 355.133 273.948M355.133 273.948V285.296M355.133 273.948H350.067C348.723 273.948 347.434 274.477 346.484 275.418C345.534 276.359 345 277.635 345 278.966V286.491C345 287.157 345.267 287.795 345.742 288.265C346.217 288.736 346.861 289 347.533 289H351.396M374.069 289H375.4C376.072 289 376.716 288.736 377.191 288.265C377.666 287.795 377.933 287.157 377.933 286.491V278.414" stroke="white" stroke-width="2" stroke-linecap="round" stroke-linejoin="round"/>
<path d="M357.545 288.457H367.76M345 281H355.087M354.457 291C355.293 291 356.094 290.665 356.685 290.069C357.277 289.473 357.609 288.664 357.609 287.821C357.609 286.979 357.277 286.17 356.685 285.574C356.094 284.978 355.293 284.643 354.457 284.643C353.621 284.643 352.819 284.978 352.228 285.574C351.636 286.17 351.304 286.979 351.304 287.821C351.304 288.664 351.636 289.473 352.228 290.069C352.819 290.665 353.621 291 354.457 291ZM370.848 291C371.684 291 372.486 290.665 373.077 290.069C373.668 289.473 374 288.664 374 287.821C374 286.979 373.668 286.17 373.077 285.574C372.486 284.978 371.684 284.643 370.848 284.643C370.012 284.643 369.21 284.978 368.619 285.574C368.028 286.17 367.696 286.979 367.696 287.821C367.696 288.664 368.028 289.473 368.619 290.069C369.21 290.665 370.012 291 370.848 291Z" stroke="white" stroke-width="2" stroke-linecap="round" stroke-linejoin="round"/>
<path d="M335.232 310V298.72H337.28V308.256H342.688V310H335.232ZM347.834 310.16C347.024 310.16 346.32 309.995 345.722 309.664C345.125 309.333 344.661 308.864 344.33 308.256C344 307.637 343.834 306.912 343.834 306.08C343.834 305.248 344 304.528 344.33 303.92C344.661 303.312 345.125 302.843 345.722 302.512C346.32 302.181 347.024 302.016 347.834 302.016C348.645 302.016 349.349 302.181 349.946 302.512C350.544 302.843 351.008 303.312 351.338 303.92C351.669 304.528 351.834 305.248 351.834 306.08C351.834 306.912 351.669 307.637 351.338 308.256C351.008 308.864 350.544 309.333 349.946 309.664C349.349 309.995 348.645 310.16 347.834 310.16ZM347.834 308.64C348.432 308.64 348.912 308.427 349.274 308C349.637 307.563 349.818 306.923 349.818 306.08C349.818 305.227 349.637 304.592 349.274 304.176C348.912 303.749 348.432 303.536 347.834 303.536C347.237 303.536 346.757 303.749 346.394 304.176C346.032 304.592 345.85 305.227 345.85 306.08C345.85 306.923 346.032 307.563 346.394 308C346.757 308.427 347.237 308.64 347.834 308.64ZM357.453 313.04C356.728 313.04 356.045 312.955 355.405 312.784C354.776 312.624 354.221 312.373 353.741 312.032L354.317 310.64C354.616 310.832 354.93 310.992 355.261 311.12C355.592 311.259 355.928 311.36 356.269 311.424C356.61 311.488 356.952 311.52 357.293 311.52C358.008 311.52 358.541 311.344 358.893 310.992C359.256 310.651 359.437 310.139 359.437 309.456V308.016H359.581C359.421 308.56 359.085 308.997 358.573 309.328C358.072 309.648 357.501 309.808 356.861 309.808C356.157 309.808 355.544 309.648 355.021 309.328C354.498 308.997 354.093 308.539 353.805 307.952C353.517 307.365 353.373 306.683 353.373 305.904C353.373 305.125 353.517 304.448 353.805 303.872C354.093 303.285 354.498 302.832 355.021 302.512C355.544 302.181 356.157 302.016 356.861 302.016C357.522 302.016 358.098 302.181 358.589 302.512C359.09 302.832 359.416 303.259 359.565 303.792H359.437V302.176H361.389V309.216C361.389 310.059 361.24 310.763 360.941 311.328C360.642 311.904 360.2 312.331 359.613 312.608C359.026 312.896 358.306 313.04 357.453 313.04ZM357.405 308.288C358.024 308.288 358.514 308.075 358.877 307.648C359.24 307.221 359.421 306.64 359.421 305.904C359.421 305.168 359.24 304.592 358.877 304.176C358.514 303.749 358.024 303.536 357.405 303.536C356.786 303.536 356.296 303.749 355.933 304.176C355.57 304.592 355.389 305.168 355.389 305.904C355.389 306.64 355.57 307.221 355.933 307.648C356.296 308.075 356.786 308.288 357.405 308.288ZM363.653 300.496V298.544H365.893V300.496H363.653ZM363.781 310V302.176H365.781V310H363.781ZM371.043 310.16C370.606 310.16 370.179 310.123 369.763 310.048C369.358 309.973 368.985 309.872 368.643 309.744C368.302 309.605 368.003 309.435 367.747 309.232L368.259 307.92C368.526 308.091 368.814 308.24 369.123 308.368C369.433 308.496 369.753 308.592 370.083 308.656C370.414 308.72 370.739 308.752 371.059 308.752C371.571 308.752 371.95 308.667 372.195 308.496C372.451 308.315 372.579 308.08 372.579 307.792C372.579 307.547 372.494 307.36 372.323 307.232C372.163 307.093 371.918 306.992 371.587 306.928L369.987 306.624C369.326 306.496 368.819 306.256 368.467 305.904C368.126 305.541 367.955 305.077 367.955 304.512C367.955 304 368.094 303.557 368.371 303.184C368.659 302.811 369.054 302.523 369.555 302.32C370.057 302.117 370.633 302.016 371.283 302.016C371.657 302.016 372.019 302.053 372.371 302.128C372.723 302.192 373.054 302.293 373.363 302.432C373.683 302.56 373.961 302.731 374.195 302.944L373.651 304.256C373.449 304.085 373.214 303.941 372.947 303.824C372.681 303.696 372.403 303.6 372.115 303.536C371.838 303.461 371.566 303.424 371.299 303.424C370.777 303.424 370.387 303.515 370.131 303.696C369.886 303.877 369.763 304.117 369.763 304.416C369.763 304.64 369.838 304.827 369.987 304.976C370.137 305.125 370.366 305.227 370.675 305.28L372.275 305.584C372.969 305.712 373.491 305.947 373.843 306.288C374.206 306.629 374.387 307.088 374.387 307.664C374.387 308.187 374.249 308.635 373.971 309.008C373.694 309.381 373.305 309.669 372.803 309.872C372.302 310.064 371.715 310.16 371.043 310.16ZM379.818 310.16C378.772 310.16 377.994 309.899 377.482 309.376C376.97 308.853 376.714 308.091 376.714 307.088V303.68H375.21V302.176H376.714V299.84H378.714V302.176H381.082V303.68H378.714V306.976C378.714 307.488 378.826 307.872 379.05 308.128C379.274 308.384 379.636 308.512 380.138 308.512C380.287 308.512 380.442 308.496 380.602 308.464C380.762 308.421 380.927 308.379 381.098 308.336L381.402 309.808C381.21 309.915 380.964 310 380.666 310.064C380.378 310.128 380.095 310.16 379.818 310.16ZM382.566 300.496V298.544H384.806V300.496H382.566ZM382.694 310V302.176H384.694V310H382.694ZM390.709 310.16C389.887 310.16 389.173 309.995 388.565 309.664C387.957 309.323 387.487 308.843 387.157 308.224C386.826 307.605 386.661 306.88 386.661 306.048C386.661 305.216 386.826 304.501 387.157 303.904C387.487 303.296 387.957 302.832 388.565 302.512C389.173 302.181 389.887 302.016 390.709 302.016C391.21 302.016 391.706 302.096 392.197 302.256C392.687 302.416 393.093 302.64 393.413 302.928L392.821 304.32C392.543 304.075 392.229 303.888 391.877 303.76C391.535 303.632 391.205 303.568 390.885 303.568C390.191 303.568 389.653 303.787 389.269 304.224C388.895 304.651 388.709 305.264 388.709 306.064C388.709 306.853 388.895 307.477 389.269 307.936C389.653 308.384 390.191 308.608 390.885 308.608C391.194 308.608 391.525 308.544 391.877 308.416C392.229 308.288 392.543 308.096 392.821 307.84L393.413 309.248C393.093 309.525 392.682 309.749 392.181 309.92C391.69 310.08 391.199 310.16 390.709 310.16Z" fill="white"/>
<circle cx="55.5" cy="55.5" r="55.5" transform="matrix(1 0 0.00185884 0.999998 0 188)" fill="#F3C758"/>
<circle cx="13" cy="13" r="13" transform="matrix(1 0 0.000248091 1 15 246)" fill="#F6D582"/>
<circle cx="4.5" cy="4.5" r="4.5" transform="matrix(1 0 0.000245059 1 71 202)" fill="#F6D582"/>
<path d="M68.5 220.439C68.5 221.447 67.8829 222.325 67.0059 222.683V244H42.5L49.3532 233.057C49.133 232.682 49.0153 232.256 49.0122 231.821C49.0122 230.472 50.1002 229.382 51.4482 229.382C52.7961 229.382 53.8841 230.472 53.8841 231.821C53.8841 232.033 53.8517 232.228 53.8029 232.423L56.1415 233.447C56.58 232.959 57.2295 232.634 57.9441 232.634C58.2364 232.634 58.5125 232.699 58.7723 232.78L64.5862 222.358C64.0016 221.919 63.628 221.22 63.628 220.439C63.628 219.089 64.7161 218 66.064 218C66.3726 218 66.6487 218.065 66.9247 218.163L67.0059 218.016V218.195C67.8829 218.553 68.5 219.431 68.5 220.439ZM65.3819 242.374V224.26L60.039 233.837C60.2502 234.211 60.3801 234.618 60.3801 235.073C60.3801 236.423 59.292 237.512 57.9441 237.512C56.5962 237.512 55.5081 236.423 55.5081 235.073L55.5244 234.959L52.8773 233.789C52.4713 234.081 51.9841 234.26 51.4482 234.26C51.1558 234.26 50.8798 234.195 50.6199 234.098L45.4232 242.374H65.3819Z" fill="white"/>
<path d="M23.232 264V252.72H30.608V254.352H25.28V257.536H30.272V259.168H25.28V264H23.232ZM32.2164 254.496V252.544H34.4564V254.496H32.2164ZM32.3444 264V256.176H34.3444V264H32.3444ZM36.7425 264V256.176H38.6945V257.744H38.5185C38.7532 257.179 39.1158 256.752 39.6065 256.464C40.1078 256.165 40.6732 256.016 41.3025 256.016C41.9318 256.016 42.4492 256.133 42.8545 256.368C43.2598 256.603 43.5638 256.96 43.7665 257.44C43.9692 257.909 44.0705 258.507 44.0705 259.232V264H42.0705V259.328C42.0705 258.923 42.0172 258.592 41.9105 258.336C41.8145 258.08 41.6598 257.893 41.4465 257.776C41.2438 257.648 40.9825 257.584 40.6625 257.584C40.2785 257.584 39.9425 257.669 39.6545 257.84C39.3665 258 39.1425 258.235 38.9825 258.544C38.8225 258.843 38.7425 259.195 38.7425 259.6V264H36.7425ZM48.9979 264.16C48.4325 264.16 47.9259 264.053 47.4779 263.84C47.0405 263.616 46.6939 263.317 46.4379 262.944C46.1925 262.571 46.0699 262.149 46.0699 261.68C46.0699 261.104 46.2192 260.651 46.5179 260.32C46.8165 259.979 47.3019 259.733 47.9739 259.584C48.6459 259.435 49.5472 259.36 50.6779 259.36H51.4779V260.512H50.6939C50.1925 260.512 49.7712 260.533 49.4299 260.576C49.0885 260.608 48.8112 260.667 48.5979 260.752C48.3952 260.827 48.2459 260.933 48.1499 261.072C48.0645 261.211 48.0219 261.381 48.0219 261.584C48.0219 261.936 48.1445 262.224 48.3899 262.448C48.6352 262.672 48.9765 262.784 49.4139 262.784C49.7659 262.784 50.0752 262.704 50.3419 262.544C50.6192 262.373 50.8379 262.144 50.9979 261.856C51.1579 261.568 51.2379 261.237 51.2379 260.864V259.024C51.2379 258.491 51.1205 258.107 50.8859 257.872C50.6512 257.637 50.2565 257.52 49.7019 257.52C49.2645 257.52 48.8165 257.589 48.3579 257.728C47.8992 257.856 47.4352 258.059 46.9659 258.336L46.3899 256.976C46.6672 256.784 46.9925 256.619 47.3659 256.48C47.7499 256.331 48.1499 256.219 48.5659 256.144C48.9925 256.059 49.3925 256.016 49.7659 256.016C50.5339 256.016 51.1632 256.133 51.6539 256.368C52.1552 256.603 52.5285 256.96 52.7739 257.44C53.0192 257.909 53.1419 258.517 53.1419 259.264V264H51.2699V262.336H51.3979C51.3232 262.709 51.1739 263.035 50.9499 263.312C50.7365 263.579 50.4645 263.787 50.1339 263.936C49.8032 264.085 49.4245 264.16 48.9979 264.16ZM55.4919 264V256.176H57.4439V257.744H57.2679C57.5025 257.179 57.8652 256.752 58.3559 256.464C58.8572 256.165 59.4225 256.016 60.0519 256.016C60.6812 256.016 61.1985 256.133 61.6039 256.368C62.0092 256.603 62.3132 256.96 62.5159 257.44C62.7185 257.909 62.8199 258.507 62.8199 259.232V264H60.8199V259.328C60.8199 258.923 60.7665 258.592 60.6599 258.336C60.5639 258.08 60.4092 257.893 60.1959 257.776C59.9932 257.648 59.7319 257.584 59.4119 257.584C59.0279 257.584 58.6919 257.669 58.4039 257.84C58.1159 258 57.8919 258.235 57.7319 258.544C57.5719 258.843 57.4919 259.195 57.4919 259.6V264H55.4919ZM68.7872 264.16C67.9659 264.16 67.2512 263.995 66.6432 263.664C66.0352 263.323 65.5659 262.843 65.2352 262.224C64.9046 261.605 64.7392 260.88 64.7392 260.048C64.7392 259.216 64.9046 258.501 65.2352 257.904C65.5659 257.296 66.0352 256.832 66.6432 256.512C67.2512 256.181 67.9659 256.016 68.7872 256.016C69.2886 256.016 69.7846 256.096 70.2752 256.256C70.7659 256.416 71.1712 256.64 71.4912 256.928L70.8992 258.32C70.6219 258.075 70.3072 257.888 69.9552 257.76C69.6139 257.632 69.2832 257.568 68.9632 257.568C68.2699 257.568 67.7312 257.787 67.3472 258.224C66.9739 258.651 66.7872 259.264 66.7872 260.064C66.7872 260.853 66.9739 261.477 67.3472 261.936C67.7312 262.384 68.2699 262.608 68.9632 262.608C69.2726 262.608 69.6032 262.544 69.9552 262.416C70.3072 262.288 70.6219 262.096 70.8992 261.84L71.4912 263.248C71.1712 263.525 70.7606 263.749 70.2592 263.92C69.7686 264.08 69.2779 264.16 68.7872 264.16ZM76.7379 264.16C75.8525 264.16 75.0899 263.995 74.4499 263.664C73.8099 263.333 73.3139 262.864 72.9619 262.256C72.6205 261.648 72.4499 260.928 72.4499 260.096C72.4499 259.285 72.6152 258.576 72.9459 257.968C73.2872 257.36 73.7512 256.885 74.3379 256.544C74.9352 256.192 75.6125 256.016 76.3699 256.016C77.1165 256.016 77.7565 256.176 78.2899 256.496C78.8232 256.816 79.2339 257.269 79.5219 257.856C79.8205 258.443 79.9699 259.141 79.9699 259.952V260.544H74.0659V259.392H78.5619L78.3059 259.632C78.3059 258.907 78.1459 258.352 77.8259 257.968C77.5059 257.573 77.0472 257.376 76.4499 257.376C76.0019 257.376 75.6179 257.483 75.2979 257.696C74.9885 257.899 74.7485 258.192 74.5779 258.576C74.4179 258.949 74.3379 259.397 74.3379 259.92V260.032C74.3379 260.619 74.4285 261.104 74.6099 261.488C74.7912 261.872 75.0632 262.16 75.4259 262.352C75.7885 262.544 76.2365 262.64 76.7699 262.64C77.2072 262.64 77.6445 262.576 78.0819 262.448C78.5192 262.309 78.9192 262.096 79.2819 261.808L79.8419 263.152C79.4685 263.461 78.9992 263.707 78.4339 263.888C77.8685 264.069 77.3032 264.16 76.7379 264.16ZM84.7378 264.16C84.3004 264.16 83.8738 264.123 83.4578 264.048C83.0524 263.973 82.6791 263.872 82.3378 263.744C81.9964 263.605 81.6978 263.435 81.4418 263.232L81.9538 261.92C82.2204 262.091 82.5084 262.24 82.8178 262.368C83.1271 262.496 83.4471 262.592 83.7778 262.656C84.1084 262.72 84.4338 262.752 84.7538 262.752C85.2658 262.752 85.6444 262.667 85.8898 262.496C86.1458 262.315 86.2738 262.08 86.2738 261.792C86.2738 261.547 86.1884 261.36 86.0178 261.232C85.8578 261.093 85.6124 260.992 85.2818 260.928L83.6818 260.624C83.0204 260.496 82.5138 260.256 82.1618 259.904C81.8204 259.541 81.6498 259.077 81.6498 258.512C81.6498 258 81.7884 257.557 82.0658 257.184C82.3538 256.811 82.7484 256.523 83.2498 256.32C83.7511 256.117 84.3271 256.016 84.9778 256.016C85.3511 256.016 85.7138 256.053 86.0658 256.128C86.4178 256.192 86.7484 256.293 87.0578 256.432C87.3778 256.56 87.6551 256.731 87.8898 256.944L87.3458 258.256C87.1431 258.085 86.9084 257.941 86.6418 257.824C86.3751 257.696 86.0978 257.6 85.8098 257.536C85.5324 257.461 85.2604 257.424 84.9938 257.424C84.4711 257.424 84.0818 257.515 83.8258 257.696C83.5804 257.877 83.4578 258.117 83.4578 258.416C83.4578 258.64 83.5324 258.827 83.6818 258.976C83.8311 259.125 84.0604 259.227 84.3698 259.28L85.9698 259.584C86.6631 259.712 87.1858 259.947 87.5378 260.288C87.9004 260.629 88.0818 261.088 88.0818 261.664C88.0818 262.187 87.9431 262.635 87.6658 263.008C87.3884 263.381 86.9991 263.669 86.4978 263.872C85.9964 264.064 85.4098 264.16 84.7378 264.16Z" fill="white"/>
</svg>
