<svg width="40" height="40" viewBox="0 0 40 40" fill="none" xmlns="http://www.w3.org/2000/svg">
<g id="covid:transmission-virus-transportation">
<g id="Group">
<path id="Vector" d="M28.8667 17.7691C30.4026 17.7691 31.8756 17.1649 32.9617 16.0895M28.8667 17.7691C27.3307 17.7691 25.8577 17.1649 24.7717 16.0895M28.8667 17.7691V22.0689M32.9617 16.0895C34.0477 15.014 34.6579 13.5554 34.6579 12.0344M32.9617 16.0895L36.0326 19.1304M34.6579 12.0344C34.6579 10.5135 34.0477 9.05486 32.9617 7.9794M34.6579 12.0344H39M32.9617 7.9794C31.8756 6.90394 30.4026 6.29975 28.8667 6.29975C27.3307 6.29975 25.8577 6.90394 24.7717 7.9794M32.9617 7.9794L36.0326 4.94009M24.7717 7.9794C23.6856 9.05486 23.0755 10.5135 23.0755 12.0344M24.7717 7.9794L21.7007 4.94009M23.0755 12.0344C23.0755 13.5554 23.6856 15.014 24.7717 16.0895M23.0755 12.0344H18.7333M24.7717 16.0895L21.7007 19.1304M27.9023 2H29.831M28.8667 2V6.30143M35.3503 4.26444L36.7149 5.61574M39 11.0795V12.991M36.7149 18.4548L35.3503 19.8061M29.831 22.0689H27.9023M22.383 19.8061L21.0184 18.4548M18.7333 12.991V11.0795M21.0184 5.61574L22.383 4.26444M16.2 18.4397H13.6667C12.9948 18.4397 12.3504 18.704 11.8753 19.1745C11.4002 19.645 11.1333 20.283 11.1333 20.9483M11.1333 20.9483V32.2956M11.1333 20.9483H6.06667C4.7229 20.9483 3.43418 21.4769 2.48399 22.4179C1.53381 23.3588 1 24.6349 1 25.9656V33.4914C1 34.1567 1.2669 34.7948 1.742 35.2652C2.21709 35.7357 2.86145 36 3.53333 36H7.39582M30.0692 36H31.4C32.0719 36 32.7162 35.7357 33.1913 35.2652C33.6664 34.7948 33.9333 34.1567 33.9333 33.4914V25.4137" stroke="white" stroke-width="2" stroke-linecap="round" stroke-linejoin="round"/>
<path id="Vector_2" d="M13.5448 35.4572H23.7595M1 28H11.087M10.4565 38C11.2925 38 12.0943 37.6651 12.6854 37.069C13.2766 36.473 13.6087 35.6645 13.6087 34.8215C13.6087 33.9785 13.2766 33.17 12.6854 32.574C12.0943 31.9779 11.2925 31.643 10.4565 31.643C9.62051 31.643 8.81875 31.9779 8.2276 32.574C7.63645 33.17 7.30435 33.9785 7.30435 34.8215C7.30435 35.6645 7.63645 36.473 8.2276 37.069C8.81875 37.6651 9.62051 38 10.4565 38ZM26.8478 38C27.6838 38 28.4856 37.6651 29.0767 37.069C29.6679 36.473 30 35.6645 30 34.8215C30 33.9785 29.6679 33.17 29.0767 32.574C28.4856 31.9779 27.6838 31.643 26.8478 31.643C26.0118 31.643 25.21 31.9779 24.6189 32.574C24.0278 33.17 23.6957 33.9785 23.6957 34.8215C23.6957 35.6645 24.0278 36.473 24.6189 37.069C25.21 37.6651 26.0118 38 26.8478 38Z" stroke="white" stroke-width="2" stroke-linecap="round" stroke-linejoin="round"/>
</g>
</g>
</svg>
