<svg width="33" height="32" viewBox="0 0 33 32" fill="none" xmlns="http://www.w3.org/2000/svg">
<g id="Line chart">
<path id="Vector" d="M29.5 5.43902C29.5 6.44715 28.8829 7.3252 28.0059 7.68293V29H3.5L10.3532 18.0569C10.133 17.6822 10.0153 17.2559 10.0122 16.8211C10.0122 15.4715 11.1002 14.3821 12.4482 14.3821C13.7961 14.3821 14.8841 15.4715 14.8841 16.8211C14.8841 17.0325 14.8517 17.2276 14.8029 17.4228L17.1415 18.4472C17.58 17.9593 18.2295 17.6341 18.9441 17.6341C19.2364 17.6341 19.5125 17.6992 19.7723 17.7805L25.5862 7.35772C25.0016 6.9187 24.628 6.21951 24.628 5.43902C24.628 4.08943 25.7161 3 27.064 3C27.3726 3 27.6487 3.06504 27.9247 3.1626L28.0059 3.01626V3.19512C28.8829 3.55285 29.5 4.43089 29.5 5.43902ZM26.3819 27.374V9.26016L21.039 18.8374C21.2502 19.2114 21.3801 19.6179 21.3801 20.0732C21.3801 21.4228 20.292 22.5122 18.9441 22.5122C17.5962 22.5122 16.5081 21.4228 16.5081 20.0732L16.5244 19.9594L13.8773 18.7886C13.4713 19.0813 12.9841 19.2602 12.4482 19.2602C12.1558 19.2602 11.8798 19.1951 11.6199 19.0976L6.42317 27.374H26.3819Z" fill="white"/>
</g>
</svg>
