<svg width="51" height="50" viewBox="0 0 51 50" fill="none" xmlns="http://www.w3.org/2000/svg">
<g id="Heartbeat">
<path id="Vector" d="M14.1698 26.6855H6.43397C6.12621 26.6855 5.83107 26.5611 5.61345 26.3397C5.39584 26.1183 5.27359 25.818 5.27359 25.5049C5.27359 25.1917 5.39584 24.8915 5.61345 24.67C5.83107 24.4486 6.12621 24.3242 6.43397 24.3242H13.5509L16.2972 20.133C16.403 19.9706 16.5467 19.8375 16.7154 19.7453C16.8842 19.6532 17.0727 19.605 17.2642 19.605C17.4556 19.605 17.6441 19.6532 17.8129 19.7453C17.9816 19.8375 18.1253 19.9706 18.2311 20.133L23.4528 28.1023L25.5802 24.8555C25.6857 24.6926 25.8292 24.5587 25.9979 24.466C26.1667 24.3733 26.3554 24.3246 26.5472 24.3242H31.1887C31.4964 24.3242 31.7916 24.4486 32.0092 24.67C32.2268 24.8915 32.3491 25.1917 32.3491 25.5049C32.3491 25.818 32.2268 26.1183 32.0092 26.3397C31.7916 26.5611 31.4964 26.6855 31.1887 26.6855H27.166L24.4198 30.8767C24.314 31.0391 24.1703 31.1723 24.0015 31.2644C23.8328 31.3565 23.6443 31.4047 23.4528 31.4047C23.2613 31.4047 23.0728 31.3565 22.9041 31.2644C22.7354 31.1723 22.5917 31.0391 22.4859 30.8767L17.2642 22.9075L15.1368 26.1542C15.0313 26.3172 14.8878 26.451 14.719 26.5437C14.5503 26.6364 14.3616 26.6851 14.1698 26.6855ZM34.283 7.00834C32.4523 7.00742 30.6492 7.46241 29.0311 8.33362C27.4129 9.20482 26.029 10.4657 25 12.0063C23.6525 9.98507 21.7033 8.45693 19.4388 7.64655C17.1743 6.83616 14.7141 6.78628 12.4196 7.50424C10.1252 8.22219 8.11771 9.67011 6.69216 11.6352C5.26662 13.6002 4.49825 15.9787 4.5 18.4211C4.5 18.6966 4.5 18.9917 4.51934 19.2672C4.53928 19.5822 4.68035 19.8765 4.91201 20.0864C5.14367 20.2963 5.44727 20.405 5.75708 20.3888C5.90872 20.3813 6.05736 20.3431 6.1943 20.2764C6.33125 20.2098 6.45374 20.116 6.5546 20.0005C6.65546 19.8851 6.73266 19.7503 6.78169 19.6041C6.83071 19.4579 6.85057 19.3032 6.8401 19.1491C6.82076 18.8933 6.82076 18.6572 6.82076 18.4211C6.81625 16.3252 7.52674 14.2927 8.83098 12.6704C10.1352 11.0481 11.9523 9.93662 13.9723 9.52559C15.9922 9.11455 18.0897 9.42946 19.9069 10.4166C21.724 11.4037 23.1482 13.0018 23.9363 14.9382C24.0196 15.1564 24.1657 15.3439 24.3555 15.4761C24.5453 15.6083 24.77 15.679 25 15.679C25.23 15.679 25.4547 15.6083 25.6445 15.4761C25.8343 15.3439 25.9804 15.1564 26.0637 14.9382C26.8518 13.0018 28.276 11.4037 30.0931 10.4166C31.9103 9.42946 34.0078 9.11455 36.0277 9.52559C38.0477 9.93662 39.8648 11.0481 41.169 12.6704C42.4733 14.2927 43.1837 16.3252 43.1792 18.4211C43.1792 29.6961 28.133 39.5347 25 41.4434C23.1434 40.3021 17.0708 36.3863 12.4679 31.0342C12.368 30.916 12.246 30.8192 12.1091 30.7492C11.9722 30.6793 11.823 30.6376 11.6702 30.6266C11.5173 30.6157 11.3639 30.6356 11.2187 30.6853C11.0734 30.735 10.9393 30.8134 10.8241 30.9161C10.594 31.1243 10.4531 31.4158 10.4314 31.7283C10.4097 32.0408 10.509 32.3496 10.708 32.5887C16.4712 39.2789 24.1104 43.6669 24.4392 43.844C24.609 43.9461 24.8027 44 25 44C25.1973 44 25.391 43.9461 25.5608 43.844C29.0873 41.7464 32.3981 39.2942 35.4434 36.5241C42.1156 30.4045 45.5 24.3242 45.5 18.4211C45.5 15.3942 44.3182 12.4914 42.2146 10.3511C40.111 8.21075 37.2579 7.00834 34.283 7.00834Z" fill="white"/>
</g>
</svg>
