<svg width="24" height="24" viewBox="0 0 24 24" fill="none" xmlns="http://www.w3.org/2000/svg">
<path d="M19.8747 3.74927H4.12466C3.4287 3.75001 2.76145 4.02681 2.26933 4.51893C1.77721 5.01106 1.50041 5.6783 1.49966 6.37427V17.6243C1.50041 18.3202 1.77721 18.9875 2.26933 19.4796C2.76145 19.9717 3.4287 20.2485 4.12466 20.2493H19.8747C20.5706 20.2485 21.2379 19.9717 21.73 19.4796C22.2221 18.9875 22.4989 18.3202 22.4997 17.6243V6.37427C22.4989 5.6783 22.2221 5.01106 21.73 4.51893C21.2379 4.02681 20.5706 3.75001 19.8747 3.74927ZM19.21 8.0913L12.46 13.3413C12.3284 13.4436 12.1664 13.4992 11.9997 13.4992C11.8329 13.4992 11.671 13.4436 11.5394 13.3413L4.78935 8.0913C4.71005 8.03141 4.64343 7.95636 4.59338 7.8705C4.54334 7.78464 4.51085 7.68969 4.49781 7.59117C4.48478 7.49265 4.49145 7.39252 4.51745 7.2966C4.54344 7.20068 4.58824 7.11089 4.64924 7.03243C4.71024 6.95398 4.78623 6.88843 4.87278 6.83959C4.95933 6.79076 5.05473 6.75961 5.15342 6.74796C5.25212 6.73631 5.35214 6.74439 5.44769 6.77174C5.54323 6.79908 5.63239 6.84514 5.70998 6.90724L11.9997 11.7991L18.2894 6.90724C18.4466 6.78847 18.6443 6.73637 18.8397 6.76223C19.0351 6.78808 19.2125 6.8898 19.3334 7.04539C19.4544 7.20098 19.5093 7.39793 19.4862 7.59366C19.4631 7.78938 19.3638 7.96815 19.21 8.0913Z" fill="#FFCA1D"/>
</svg>
